<svg width="107" height="34" viewBox="0 0 107 34" fill="none" xmlns="http://www.w3.org/2000/svg">
<path d="M36.8289 29V6.95H40.0689C40.9889 6.95 41.7939 7.085 42.4839 7.355C43.1739 7.615 43.7489 8.01 44.2089 8.54C44.6689 9.07 45.0139 9.735 45.2439 10.535C45.4739 11.325 45.5889 12.25 45.5889 13.31C45.5889 13.92 45.5489 14.49 45.4689 15.02C45.3889 15.54 45.2739 16.015 45.1239 16.445C44.9739 16.865 44.7839 17.235 44.5539 17.555C44.3339 17.865 44.0789 18.12 43.7889 18.32L45.8589 29H42.6189L40.9389 19.7H40.0689V29H36.8289ZM40.0689 16.7C40.4889 16.7 40.8489 16.635 41.1489 16.505C41.4489 16.375 41.6939 16.18 41.8839 15.92C42.0839 15.65 42.2289 15.31 42.3189 14.9C42.4189 14.49 42.4689 14 42.4689 13.43C42.4689 12.67 42.3839 12.05 42.2139 11.57C42.0439 11.09 41.7839 10.735 41.4339 10.505C41.0839 10.275 40.6289 10.16 40.0689 10.16V16.7ZM47.6688 29V6.95H55.0788V10.28H50.9088V16.07H53.9088V19.61H50.9088V25.67H55.0788V29H47.6688ZM59.298 29L55.938 6.95H59.088L60.708 19.07L60.828 20H61.008L61.128 19.07L62.748 6.95H65.898L62.538 29H59.298ZM67.3563 29V6.95H70.5963V29H67.3563ZM73.0105 29V6.95H80.4205V10.28H76.2505V16.07H79.2505V19.61H76.2505V25.67H80.4205V29H73.0105ZM84.3398 29L81.3698 6.95H84.3698L85.6598 18.41L85.7198 19.13H85.9598L86.0498 18.41L87.4298 6.95H89.7698L91.1498 18.41L91.2398 19.13H91.4798L91.5398 18.41L92.8298 6.95H95.8298L92.8598 29H90.3398L88.8398 18.56L88.6598 17.27H88.5398L88.3598 18.56L86.8598 29H84.3398ZM101.436 29.24C99.8055 29.24 98.5955 28.7 97.8055 27.62C97.0155 26.53 96.6555 24.93 96.7255 22.82L99.9055 22.52C99.9055 23.83 100.026 24.785 100.266 25.385C100.516 25.975 100.906 26.27 101.436 26.27C101.726 26.27 101.966 26.19 102.156 26.03C102.356 25.86 102.506 25.62 102.606 25.31C102.706 24.99 102.756 24.6 102.756 24.14C102.756 23.8 102.726 23.485 102.666 23.195C102.606 22.905 102.476 22.57 102.276 22.19C102.086 21.8 101.791 21.295 101.391 20.675C101.001 20.055 100.466 19.245 99.7855 18.245C98.9155 16.955 98.2605 15.78 97.8205 14.72C97.3905 13.66 97.1755 12.71 97.1755 11.87C97.1755 10.86 97.3505 9.97 97.7005 9.2C98.0605 8.43 98.5605 7.825 99.2005 7.385C99.8405 6.945 100.576 6.72 101.406 6.71C102.856 6.68 103.971 7.175 104.751 8.195C105.541 9.205 105.936 10.66 105.936 12.56L102.756 12.86C102.756 11.82 102.646 11.03 102.426 10.49C102.206 9.94 101.886 9.67 101.466 9.68C101.206 9.68 100.991 9.755 100.821 9.905C100.661 10.045 100.541 10.265 100.461 10.565C100.391 10.865 100.356 11.25 100.356 11.72C100.356 12.11 100.431 12.53 100.581 12.98C100.741 13.43 101.006 13.965 101.376 14.585C101.756 15.205 102.266 15.97 102.906 16.88C103.636 17.91 104.221 18.83 104.661 19.64C105.111 20.44 105.436 21.18 105.636 21.86C105.836 22.53 105.936 23.19 105.936 23.84C105.936 25.01 105.766 26 105.426 26.81C105.086 27.61 104.581 28.215 103.911 28.625C103.241 29.035 102.416 29.24 101.436 29.24Z" fill="white"/>
<rect y="2.91431" width="31" height="28.1714" rx="6" fill="#4985FF"/>
<path d="M9.2 29V6.95H12.44V29H9.2ZM16.7743 29V10.28H13.7143V6.95H23.0743V10.28H20.0143V29H16.7743Z" fill="white"/>
</svg>
