<svg width="110" height="23" viewBox="0 0 110 23" fill="none" xmlns="http://www.w3.org/2000/svg">
<path d="M33 0.306152L35.4697 7.98452H43.4616L36.996 12.73L39.4656 20.4084L33 15.6629L26.5344 20.4084L29.004 12.73L22.5384 7.98452H30.5303L33 0.306152Z" fill="#4110FF"/>
<path d="M55 0.306152L57.4697 7.98452H65.4616L58.996 12.73L61.4656 20.4084L55 15.6629L48.5344 20.4084L51.004 12.73L44.5384 7.98452H52.5303L55 0.306152Z" fill="#4110FF"/>
<path d="M77 0.306152L79.4697 7.98452H87.4616L80.996 12.73L83.4656 20.4084L77 15.6629L70.5344 20.4084L73.004 12.73L66.5384 7.98452H74.5303L77 0.306152Z" fill="#4110FF"/>
<path d="M99 0.306152L101.47 7.98452H109.462L102.996 12.73L105.466 20.4084L99 15.6629L92.5344 20.4084L95.004 12.73L88.5384 7.98452H96.5303L99 0.306152Z" fill="#4110FF"/>
<path d="M11 0.306152L13.4697 7.98452H21.4616L14.996 12.73L17.4656 20.4084L11 15.6629L4.53436 20.4084L7.00402 12.73L0.538379 7.98452H8.53035L11 0.306152Z" fill="#4110FF"/>
</svg>
